Coordinates
version=1
nRows=8
nColumns=27
inDegrees=yes

Units are S.I. units (second, meters, Newtons, ...)
If the header above contains a line with 'inDegrees', this indicates whether rotational values are in degrees (yes) or radians (no).

endheader
time	pelvis_rotation	pelvis_tilt	pelvis_list	pelvis_tx	pelvis_ty	pelvis_tz	hip_flexion_r	hip_adduction_r	hip_rotation_r	knee_angle_r	knee_rotation_r	knee_adduction_r	knee_angle_r_beta	ankle_angle_r	subtalar_angle_r	mtp_angle_r	hip_flexion_l	hip_adduction_l	hip_rotation_l	knee_angle_l	knee_rotation_l	knee_adduction_l	knee_angle_l_beta	ankle_angle_l	subtalar_angle_l	mtp_angle_l
      2.29500000	      1.72443705	    -23.14082955	      1.15172644	      0.03568836	      0.83652572	     -1.18736780	     35.91897747	    -25.84945739	    -32.70346563	     18.82904903	      0.00000000	      4.30082360	      0.32862890	     -6.51612351	      0.00000000	      0.00000000	     37.03606556	    -19.96175504	    -11.59167127	     13.95331492	      0.00000000	      1.90171314	      0.24353129	     -9.79465310	      0.00000000	      0.00000000
      2.30000000	      1.70400373	    -23.84968908	      1.57937092	      0.03384635	      0.83574052	     -1.18798055	     37.46304543	    -26.55021936	    -32.20577451	     19.87625695	      0.00000000	      4.47415975	      0.34690613	     -6.20852600	      0.00000000	      0.00000000	     38.09713567	    -19.66787545	    -11.79758147	     14.55396985	      0.00000000	      1.74947170	      0.25401469	     -9.58194527	      0.00000000	      0.00000000
      2.30500000	      0.81675413	    -25.56995623	      2.56094201	      0.02931087	      0.83417256	     -1.18885659	     41.47929520	    -27.49432306	    -28.79901831	     21.81371701	      0.00000000	      3.50107200	      0.38072118	     -5.69780525	      0.00000000	      0.00000000	     40.02585852	    -19.24089579	    -13.05596095	     15.55734301	      0.00000000	      1.70681698	      0.27152686	     -9.22617012	      0.00000000	      0.00000000
      2.31000000	      1.51073506	    -25.27467299	      2.66769791	      0.02989884	      0.83391498	     -1.18937494	     40.90104906	    -28.07558671	    -30.59242827	     22.11256665	      0.00000000	      4.73996078	      0.38593709	     -5.59003334	      0.00000000	      0.00000000	     40.09292680	    -18.97090350	    -12.60252741	     15.72894931	      0.00000000	      1.40654732	      0.27452195	     -9.16884203	      0.00000000	      0.00000000
      2.31500000	      1.13854919	    -26.00850539	      3.12857495	      0.02777260	      0.83291015	     -1.18988748	     42.80986085	    -28.58265769	    -29.20754832	     23.16993729	      0.00000000	      4.62759564	      0.40439169	     -5.35250038	      0.00000000	      0.00000000	     41.05535828	    -18.83407179	    -13.38924287	     16.40089065	      0.00000000	      1.09073681	      0.28624954	     -8.92758688	      0.00000000	      0.00000000
      2.32000000	      1.16395682	    -26.77396248	      3.71201119	      0.02564484	      0.83179443	     -1.19062850	     44.62678855	    -29.34989874	    -28.37389160	     24.29653961	      0.00000000	      4.73817818	      0.42405461	     -5.08429382	      0.00000000	      0.00000000	     42.20662287	    -18.47177936	    -13.66763163	     17.08226937	      0.00000000	      0.94509164	      0.29814184	     -8.70116308	      0.00000000	      0.00000000
      2.32500000	      0.84826852	    -27.45293013	      4.18054428	      0.02358107	      0.83063958	     -1.19113285	     46.50247134	    -29.82623042	    -27.05167982	     25.36123543	      0.00000000	      4.70459351	      0.44263706	     -4.84270445	      0.00000000	      0.00000000	     43.15336124	    -18.36139449	    -14.47670300	     17.80547418	      0.00000000	      0.56396922	      0.31076415	     -8.42781969	      0.00000000	      0.00000000
      2.33000000	      0.74120607	    -28.07401416	      4.56728967	      0.02172573	      0.82945790	     -1.19158977	     48.10971750	    -30.28038634	    -26.11534131	     26.32914190	      0.00000000	      4.75451083	      0.45953022	     -4.63515963	      0.00000000	      0.00000000	     44.16719985	    -18.27272603	    -14.98649219	     18.57167022	      0.00000000	      0.19236315	      0.32413679	     -8.13324110	      0.00000000	      0.00000000
